<svg xmlns="http://www.w3.org/2000/svg" viewBox="0 0 256 256" role="img" aria-label="vStudent logo">
  <defs>
    <linearGradient id="cap" x1="40" y1="40" x2="216" y2="140" gradientUnits="userSpaceOnUse">
      <stop offset="0" stop-color="#1d4ed8"/>
      <stop offset="1" stop-color="#38bdf8"/>
    </linearGradient>
    <linearGradient id="vleft" x1="48" y1="140" x2="128" y2="232" gradientUnits="userSpaceOnUse">
      <stop offset="0" stop-color="#38bdf8"/>
      <stop offset="1" stop-color="#1d4ed8"/>
    </linearGradient>
    <linearGradient id="vright" x1="128" y1="140" x2="208" y2="232" gradientUnits="userSpaceOnUse">
      <stop offset="0" stop-color="#fb923c"/>
      <stop offset="1" stop-color="#f97316"/>
    </linearGradient>
    <linearGradient id="house" x1="92" y1="106" x2="164" y2="178" gradientUnits="userSpaceOnUse">
      <stop offset="0" stop-color="#fbbf24"/>
      <stop offset="1" stop-color="#f97316"/>
    </linearGradient>
    <filter id="shadow" x="-20%" y="-20%" width="140%" height="140%">
      <feDropShadow dx="0" dy="6" stdDeviation="6" flood-color="#0f172a" flood-opacity="0.14"/>
    </filter>
  </defs>

  <g filter="url(#shadow)">
    <path d="M128 34 30 86l98 52 98-52-98-52Z" fill="url(#cap)"/>
    <path
      d="M56 99v30c0 9 14 20 32 26"
      fill="none"
      stroke="#1d4ed8"
      stroke-width="10"
      stroke-linecap="round"
      opacity="0.65"
    />
    <circle cx="56" cy="133" r="8" fill="#1d4ed8" opacity="0.85"/>
  </g>

  <g filter="url(#shadow)">
    <path
      d="M128 98 84 126v48c0 10 8 18 18 18h52c10 0 18-8 18-18v-48l-44-28Z"
      fill="url(#house)"
    />
    <rect x="118" y="138" width="20" height="22" rx="3" fill="#fff" opacity="0.95"/>
    <path d="M128 138v22" stroke="#f97316" stroke-width="2" opacity="0.35"/>
    <path d="M118 149h20" stroke="#f97316" stroke-width="2" opacity="0.35"/>
  </g>

  <g filter="url(#shadow)">
    <path d="M54 132 96 226c8 18 24 18 32 0l-42-94Z" fill="url(#vleft)"/>
    <path d="M202 132 160 226c-8 18-24 18-32 0l42-94Z" fill="url(#vright)"/>
  </g>
</svg>
